# xmcd
#
# Track frame offsets:
#	150
#	14920
#	29392
#	44892
#	55472
#	66315
#	75060
#	85972
#	101147
#	116197
#	135547
#	153620
#	169387
#	185592
#	204562
#
# Disc length: 2960 seconds
#
# Revision: 1
# Processed by: cddbd v1.4PL0 Copyright (c) Steve Scherf et al.
# Submitted via: audiograbber 1.80.04
#
DISCID=e00b8e0f
DTITLE=Blues - Master Source Vol. 4 (disk 9)
DYEAR=1900
DGENRE=
TTITLE0=Let It Ride
TTITLE1=Stranger
TTITLE2=Gimme One More Shot
TTITLE3=Jump, Shake, Rattle 'n Roll
TTITLE4=Boom Boom Boom
TTITLE5=Let's Live It Up
TTITLE6=Gonna Rev It Up
TTITLE7=Rough 'N Ready
TTITLE8=Innocent Man
TTITLE9=The Likes Of Me
TTITLE10=Bad Weather Bad Women
TTITLE11=Since You Left Me
TTITLE12=My Heart Doesn't Live Here Anymore
TTITLE13=Just Heard The News
TTITLE14=Cryin' Over You
EXTD=
EXTT0=
EXTT1=
EXTT2=
EXTT3=
EXTT4=
EXTT5=
EXTT6=
EXTT7=
EXTT8=
EXTT9=
EXTT10=
EXTT11=
EXTT12=
EXTT13=
EXTT14=
PLAYORDER=
